<svg id="svg" version="1.1" xmlns="http://www.w3.org/2000/svg" xmlns:xlink="http://www.w3.org/1999/xlink" width="400" height="400" viewBox="0, 0, 400,400"><g id="svgg"><path id="path0" d="M164.100 136.665 C 163.825 136.776,163.600 137.172,163.600 137.545 C 163.600 137.918,163.240 138.483,162.800 138.800 C 162.360 139.117,162.000 139.697,162.000 140.088 C 162.000 140.480,161.820 140.800,161.600 140.800 C 161.380 140.800,161.200 141.004,161.200 141.253 C 161.200 141.502,160.864 141.997,160.454 142.353 C 160.043 142.709,159.569 143.630,159.400 144.400 C 159.231 145.170,158.757 146.091,158.346 146.447 C 157.936 146.803,157.600 147.388,157.600 147.747 C 157.600 148.106,157.420 148.400,157.200 148.400 C 156.980 148.400,156.800 148.748,156.800 149.173 C 156.800 149.598,156.440 150.060,156.000 150.200 C 155.560 150.340,155.200 150.802,155.200 151.227 C 155.200 151.652,155.020 152.000,154.800 152.000 C 154.580 152.000,154.400 152.320,154.400 152.712 C 154.400 153.103,154.040 153.683,153.600 154.000 C 153.160 154.317,152.800 154.897,152.800 155.288 C 152.800 155.680,152.620 156.000,152.400 156.000 C 152.180 156.000,152.000 156.320,152.000 156.712 C 152.000 157.103,151.647 157.678,151.215 157.989 C 150.783 158.301,150.309 159.105,150.161 159.777 C 150.013 160.449,149.557 161.291,149.146 161.647 C 148.736 162.003,148.400 162.588,148.400 162.947 C 148.400 163.306,148.220 163.600,148.000 163.600 C 147.780 163.600,147.600 163.920,147.600 164.312 C 147.600 164.703,147.240 165.283,146.800 165.600 C 146.360 165.917,146.000 166.497,146.000 166.888 C 146.000 167.280,145.820 167.600,145.600 167.600 C 145.380 167.600,145.200 167.830,145.200 168.112 C 145.200 168.393,144.840 168.883,144.400 169.200 C 143.960 169.517,143.600 170.097,143.600 170.488 C 143.600 170.880,143.420 171.200,143.200 171.200 C 142.980 171.200,142.800 171.520,142.800 171.912 C 142.800 172.303,142.450 172.875,142.023 173.183 C 141.596 173.491,141.131 174.424,140.991 175.255 C 140.822 176.251,140.473 176.850,139.968 177.010 C 139.545 177.144,139.200 177.602,139.200 178.027 C 139.200 178.452,139.020 178.800,138.800 178.800 C 138.580 178.800,138.400 179.120,138.400 179.512 C 138.400 179.903,138.040 180.483,137.600 180.800 C 137.160 181.117,136.800 181.697,136.800 182.088 C 136.800 182.480,136.620 182.800,136.400 182.800 C 136.180 182.800,136.000 183.094,136.000 183.453 C 136.000 183.812,135.684 184.397,135.297 184.753 C 134.911 185.109,134.327 185.940,134.000 186.600 C 133.673 187.260,133.113 188.070,132.756 188.400 C 132.399 188.731,131.969 189.630,131.800 190.400 C 131.631 191.170,131.157 192.091,130.746 192.447 C 130.336 192.803,130.000 193.388,130.000 193.747 C 130.000 194.106,129.820 194.400,129.600 194.400 C 129.380 194.400,129.200 194.630,129.200 194.912 C 129.200 195.193,128.840 195.683,128.400 196.000 C 127.960 196.317,127.600 196.897,127.600 197.288 C 127.600 197.680,127.420 198.000,127.200 198.000 C 126.980 198.000,126.800 198.320,126.800 198.712 C 126.800 199.103,126.440 199.683,126.000 200.000 C 125.560 200.317,125.200 200.897,125.200 201.288 C 125.200 201.680,125.020 202.000,124.800 202.000 C 124.580 202.000,124.400 202.320,124.400 202.712 C 124.400 203.103,124.047 203.678,123.615 203.989 C 123.183 204.301,122.709 205.105,122.561 205.777 C 122.413 206.449,121.957 207.291,121.546 207.647 C 121.136 208.003,120.800 208.588,120.800 208.947 C 120.800 209.306,120.620 209.600,120.400 209.600 C 120.180 209.600,120.000 209.920,120.000 210.312 C 120.000 210.703,119.640 211.283,119.200 211.600 C 118.760 211.917,118.400 212.497,118.400 212.888 C 118.400 213.280,118.220 213.600,118.000 213.600 C 117.780 213.600,117.600 213.830,117.600 214.112 C 117.600 214.393,117.240 214.883,116.800 215.200 C 116.360 215.517,116.000 216.097,116.000 216.488 C 116.000 216.880,115.820 217.200,115.600 217.200 C 115.380 217.200,115.200 217.520,115.200 217.912 C 115.200 218.303,114.850 218.875,114.423 219.183 C 113.996 219.491,113.531 220.424,113.391 221.255 C 113.222 222.251,112.873 222.850,112.368 223.010 C 111.945 223.144,111.600 223.602,111.600 224.027 C 111.600 224.452,111.420 224.800,111.200 224.800 C 110.980 224.800,110.800 225.120,110.800 225.512 C 110.800 225.903,110.440 226.483,110.000 226.800 C 109.560 227.117,109.200 227.697,109.200 228.088 C 109.200 228.480,109.020 228.800,108.800 228.800 C 108.580 228.800,108.400 229.120,108.400 229.512 C 108.400 229.903,108.040 230.483,107.600 230.800 C 107.160 231.117,106.800 231.607,106.800 231.888 C 106.800 232.170,106.620 232.400,106.400 232.400 C 106.180 232.400,106.000 232.678,106.000 233.017 C 106.000 233.356,105.649 234.010,105.220 234.471 C 104.791 234.931,104.317 235.869,104.166 236.554 C 104.016 237.239,103.557 238.091,103.146 238.447 C 102.736 238.803,102.400 239.388,102.400 239.747 C 102.400 240.106,102.220 240.400,102.000 240.400 C 101.780 240.400,101.600 240.630,101.600 240.912 C 101.600 241.193,101.240 241.683,100.800 242.000 C 100.360 242.317,100.000 242.897,100.000 243.288 C 100.000 243.680,99.820 244.000,99.600 244.000 C 99.380 244.000,99.200 244.320,99.200 244.712 C 99.200 245.103,98.840 245.683,98.400 246.000 C 97.960 246.317,97.600 246.897,97.600 247.288 C 97.600 247.680,97.420 248.000,97.200 248.000 C 96.980 248.000,96.800 248.341,96.800 248.757 C 96.800 249.174,96.530 249.618,96.200 249.745 C 95.870 249.871,95.600 250.341,95.600 250.787 C 95.600 251.234,95.420 251.600,95.200 251.600 C 94.980 251.600,94.800 251.920,94.800 252.312 C 94.800 252.703,94.440 253.283,94.000 253.600 C 93.560 253.917,93.200 254.497,93.200 254.888 C 93.200 255.280,93.020 255.600,92.800 255.600 C 92.580 255.600,92.400 255.894,92.400 256.253 C 92.400 256.612,92.019 257.237,91.553 257.640 C 90.385 258.654,90.800 260.044,92.484 260.757 C 93.208 261.063,94.160 261.603,94.600 261.957 C 96.729 263.668,98.400 263.883,98.400 262.446 C 98.400 262.078,98.760 261.517,99.200 261.200 C 99.640 260.883,100.000 260.303,100.000 259.912 C 100.000 259.520,100.180 259.200,100.400 259.200 C 100.620 259.200,100.800 258.970,100.800 258.688 C 100.800 258.407,101.160 257.917,101.600 257.600 C 102.040 257.283,102.400 256.703,102.400 256.312 C 102.400 255.920,102.580 255.600,102.800 255.600 C 103.020 255.600,103.200 255.317,103.200 254.971 C 103.200 254.626,103.470 254.073,103.800 253.743 C 104.130 253.413,104.400 252.796,104.400 252.371 C 104.400 251.947,104.580 251.600,104.800 251.600 C 105.020 251.600,105.200 251.252,105.200 250.827 C 105.200 250.402,105.560 249.940,106.000 249.800 C 106.440 249.660,106.800 249.198,106.800 248.773 C 106.800 248.348,106.980 248.000,107.200 248.000 C 107.420 248.000,107.600 247.680,107.600 247.288 C 107.600 246.897,107.960 246.317,108.400 246.000 C 108.840 245.683,109.200 245.103,109.200 244.712 C 109.200 244.320,109.380 244.000,109.600 244.000 C 109.820 244.000,110.000 243.680,110.000 243.288 C 110.000 242.897,110.360 242.317,110.800 242.000 C 111.240 241.683,111.600 241.193,111.600 240.912 C 111.600 240.630,111.780 240.400,112.000 240.400 C 112.220 240.400,112.400 240.117,112.400 239.771 C 112.400 239.426,112.670 238.873,113.000 238.543 C 113.330 238.213,113.600 237.596,113.600 237.171 C 113.600 236.747,113.780 236.400,114.000 236.400 C 114.220 236.400,114.400 236.080,114.400 235.688 C 114.400 235.297,114.760 234.717,115.200 234.400 C 115.640 234.083,116.000 233.503,116.000 233.112 C 116.000 232.720,116.180 232.400,116.400 232.400 C 116.620 232.400,116.800 232.170,116.800 231.888 C 116.800 231.607,117.160 231.117,117.600 230.800 C 118.040 230.483,118.400 229.903,118.400 229.512 C 118.400 229.120,118.580 228.800,118.800 228.800 C 119.020 228.800,119.200 228.480,119.200 228.088 C 119.200 227.697,119.560 227.117,120.000 226.800 C 120.440 226.483,120.800 225.903,120.800 225.512 C 120.800 225.120,120.980 224.800,121.200 224.800 C 121.420 224.800,121.600 224.459,121.600 224.043 C 121.600 223.626,121.870 223.182,122.200 223.055 C 122.530 222.929,122.800 222.459,122.800 222.013 C 122.800 221.566,122.980 221.200,123.200 221.200 C 123.420 221.200,123.600 220.880,123.600 220.488 C 123.600 220.097,123.960 219.517,124.400 219.200 C 124.840 218.883,125.200 218.303,125.200 217.912 C 125.200 217.520,125.380 217.200,125.600 217.200 C 125.820 217.200,126.000 216.880,126.000 216.488 C 126.000 216.097,126.360 215.517,126.800 215.200 C 127.240 214.883,127.600 214.393,127.600 214.112 C 127.600 213.830,127.780 213.600,128.000 213.600 C 128.220 213.600,128.400 213.280,128.400 212.888 C 128.400 212.497,128.760 211.917,129.200 211.600 C 129.640 211.283,130.000 210.703,130.000 210.312 C 130.000 209.920,130.180 209.600,130.400 209.600 C 130.620 209.600,130.800 209.317,130.800 208.971 C 130.800 208.626,131.070 208.073,131.400 207.743 C 131.730 207.413,132.000 206.796,132.000 206.371 C 132.000 205.947,132.180 205.600,132.400 205.600 C 132.620 205.600,132.800 205.370,132.800 205.088 C 132.800 204.807,133.160 204.317,133.600 204.000 C 134.040 203.683,134.400 203.103,134.400 202.712 C 134.400 202.320,134.580 202.000,134.800 202.000 C 135.020 202.000,135.200 201.680,135.200 201.288 C 135.200 200.897,135.560 200.317,136.000 200.000 C 136.440 199.683,136.800 199.103,136.800 198.712 C 136.800 198.320,136.980 198.000,137.200 198.000 C 137.420 198.000,137.600 197.680,137.600 197.288 C 137.600 196.897,137.960 196.317,138.400 196.000 C 138.840 195.683,139.200 195.193,139.200 194.912 C 139.200 194.630,139.380 194.400,139.600 194.400 C 139.820 194.400,140.000 194.117,140.000 193.771 C 140.000 193.426,140.270 192.873,140.600 192.543 C 140.930 192.213,141.200 191.596,141.200 191.171 C 141.200 190.747,141.380 190.400,141.600 190.400 C 141.820 190.400,142.000 190.080,142.000 189.688 C 142.000 189.297,142.360 188.717,142.800 188.400 C 143.240 188.083,143.600 187.503,143.600 187.112 C 143.600 186.720,143.780 186.400,144.000 186.400 C 144.220 186.400,144.400 186.170,144.400 185.888 C 144.400 185.607,144.760 185.117,145.200 184.800 C 145.640 184.483,146.000 183.903,146.000 183.512 C 146.000 183.120,146.180 182.800,146.400 182.800 C 146.620 182.800,146.800 182.480,146.800 182.088 C 146.800 181.697,147.160 181.117,147.600 180.800 C 148.040 180.483,148.400 179.903,148.400 179.512 C 148.400 179.120,148.580 178.800,148.800 178.800 C 149.020 178.800,149.200 178.459,149.200 178.043 C 149.200 177.626,149.470 177.182,149.800 177.055 C 150.130 176.929,150.400 176.459,150.400 176.013 C 150.400 175.566,150.580 175.200,150.800 175.200 C 151.020 175.200,151.200 174.880,151.200 174.488 C 151.200 174.097,151.560 173.517,152.000 173.200 C 152.440 172.883,152.800 172.303,152.800 171.912 C 152.800 171.520,152.980 171.200,153.200 171.200 C 153.420 171.200,153.600 170.880,153.600 170.488 C 153.600 170.097,153.960 169.517,154.400 169.200 C 154.840 168.883,155.200 168.393,155.200 168.112 C 155.200 167.830,155.380 167.600,155.600 167.600 C 155.820 167.600,156.000 167.280,156.000 166.888 C 156.000 166.497,156.360 165.917,156.800 165.600 C 157.240 165.283,157.600 164.703,157.600 164.312 C 157.600 163.920,157.780 163.600,158.000 163.600 C 158.220 163.600,158.400 163.317,158.400 162.971 C 158.400 162.626,158.670 162.073,159.000 161.743 C 159.330 161.413,159.600 160.796,159.600 160.371 C 159.600 159.947,159.780 159.600,160.000 159.600 C 160.220 159.600,160.400 159.370,160.400 159.088 C 160.400 158.807,160.760 158.317,161.200 158.000 C 161.640 157.683,162.000 157.103,162.000 156.712 C 162.000 156.320,162.180 156.000,162.400 156.000 C 162.620 156.000,162.800 155.680,162.800 155.288 C 162.800 154.897,163.160 154.317,163.600 154.000 C 164.040 153.683,164.400 153.103,164.400 152.712 C 164.400 152.320,164.580 152.000,164.800 152.000 C 165.020 152.000,165.200 151.652,165.200 151.227 C 165.200 150.802,165.560 150.340,166.000 150.200 C 166.440 150.060,166.800 149.598,166.800 149.173 C 166.800 148.748,166.980 148.400,167.200 148.400 C 167.420 148.400,167.600 148.053,167.600 147.629 C 167.600 147.204,167.870 146.587,168.200 146.257 C 168.530 145.927,168.800 145.374,168.800 145.029 C 168.800 144.683,168.980 144.400,169.200 144.400 C 169.420 144.400,169.600 144.106,169.600 143.747 C 169.600 143.388,169.948 142.792,170.373 142.423 C 172.250 140.796,171.865 139.915,168.615 138.400 C 166.963 137.630,165.609 136.865,165.606 136.700 C 165.599 136.369,164.875 136.352,164.100 136.665 M232.400 137.831 C 229.736 139.208,228.150 140.783,229.106 141.102 C 229.378 141.193,229.600 141.612,229.600 142.033 C 229.600 142.455,229.780 142.800,230.000 142.800 C 230.220 142.800,230.400 143.094,230.400 143.453 C 230.400 143.812,230.736 144.397,231.146 144.753 C 231.557 145.109,232.031 146.030,232.200 146.800 C 232.369 147.570,232.843 148.491,233.254 148.847 C 233.664 149.203,234.000 149.698,234.000 149.947 C 234.000 150.196,234.180 150.400,234.400 150.400 C 234.620 150.400,234.800 150.720,234.800 151.112 C 234.800 151.503,235.160 152.083,235.600 152.400 C 236.040 152.717,236.400 153.297,236.400 153.688 C 236.400 154.080,236.580 154.400,236.800 154.400 C 237.020 154.400,237.200 154.720,237.200 155.112 C 237.200 155.503,237.560 156.083,238.000 156.400 C 238.440 156.717,238.800 157.297,238.800 157.688 C 238.800 158.080,238.980 158.400,239.200 158.400 C 239.420 158.400,239.600 158.670,239.600 159.000 C 239.600 159.330,239.745 159.600,239.923 159.600 C 240.254 159.600,241.600 162.366,241.600 163.046 C 241.600 163.254,241.960 163.683,242.400 164.000 C 242.840 164.317,243.200 164.897,243.200 165.288 C 243.200 165.680,243.380 166.000,243.600 166.000 C 243.820 166.000,244.000 166.348,244.000 166.773 C 244.000 167.198,244.360 167.660,244.800 167.800 C 245.240 167.940,245.600 168.402,245.600 168.827 C 245.600 169.252,245.780 169.600,246.000 169.600 C 246.220 169.600,246.400 169.920,246.400 170.312 C 246.400 170.703,246.760 171.283,247.200 171.600 C 247.640 171.917,248.000 172.497,248.000 172.888 C 248.000 173.280,248.180 173.600,248.400 173.600 C 248.620 173.600,248.800 173.960,248.800 174.400 C 248.800 174.840,248.977 175.200,249.192 175.200 C 249.408 175.200,249.698 175.650,249.836 176.200 C 249.974 176.750,250.247 177.200,250.443 177.200 C 250.640 177.200,250.800 177.520,250.800 177.912 C 250.800 178.303,251.160 178.883,251.600 179.200 C 252.040 179.517,252.400 180.097,252.400 180.488 C 252.400 180.880,252.580 181.200,252.800 181.200 C 253.020 181.200,253.200 181.520,253.200 181.912 C 253.200 182.303,253.560 182.883,254.000 183.200 C 254.440 183.517,254.800 184.097,254.800 184.488 C 254.800 184.880,254.980 185.200,255.200 185.200 C 255.420 185.200,255.600 185.430,255.600 185.712 C 255.600 185.993,255.960 186.483,256.400 186.800 C 256.840 187.117,257.200 187.697,257.200 188.088 C 257.200 188.480,257.380 188.800,257.600 188.800 C 257.820 188.800,258.000 189.083,258.000 189.429 C 258.000 189.774,258.270 190.327,258.600 190.657 C 258.930 190.987,259.200 191.604,259.200 192.029 C 259.200 192.453,259.380 192.800,259.600 192.800 C 259.820 192.800,260.000 193.120,260.000 193.512 C 260.000 193.903,260.360 194.483,260.800 194.800 C 261.240 195.117,261.600 195.607,261.600 195.888 C 261.600 196.170,261.780 196.400,262.000 196.400 C 262.220 196.400,262.400 196.720,262.400 197.112 C 262.400 197.503,262.760 198.083,263.200 198.400 C 263.640 198.717,264.000 199.297,264.000 199.688 C 264.000 200.080,264.180 200.400,264.400 200.400 C 264.620 200.400,264.800 200.720,264.800 201.112 C 264.800 201.503,265.160 202.083,265.600 202.400 C 266.040 202.717,266.400 203.297,266.400 203.688 C 266.400 204.080,266.580 204.400,266.800 204.400 C 267.020 204.400,267.200 204.593,267.200 204.829 C 267.200 205.064,267.470 205.527,267.800 205.857 C 268.130 206.187,268.400 206.804,268.400 207.229 C 268.400 207.653,268.580 208.000,268.800 208.000 C 269.020 208.000,269.200 208.320,269.200 208.712 C 269.200 209.103,269.560 209.683,270.000 210.000 C 270.440 210.317,270.800 210.897,270.800 211.288 C 270.800 211.680,270.980 212.000,271.200 212.000 C 271.420 212.000,271.600 212.348,271.600 212.773 C 271.600 213.198,271.960 213.660,272.400 213.800 C 272.840 213.940,273.200 214.402,273.200 214.827 C 273.200 215.252,273.380 215.600,273.600 215.600 C 273.820 215.600,274.000 215.920,274.000 216.312 C 274.000 216.703,274.360 217.283,274.800 217.600 C 275.240 217.917,275.600 218.497,275.600 218.888 C 275.600 219.280,275.780 219.600,276.000 219.600 C 276.220 219.600,276.400 219.960,276.400 220.400 C 276.400 220.840,276.577 221.200,276.792 221.200 C 277.008 221.200,277.298 221.650,277.436 222.200 C 277.574 222.750,277.847 223.200,278.043 223.200 C 278.240 223.200,278.400 223.520,278.400 223.912 C 278.400 224.303,278.760 224.883,279.200 225.200 C 279.640 225.517,280.000 226.097,280.000 226.488 C 280.000 226.880,280.180 227.200,280.400 227.200 C 280.620 227.200,280.800 227.520,280.800 227.912 C 280.800 228.303,281.160 228.883,281.600 229.200 C 282.040 229.517,282.400 230.097,282.400 230.488 C 282.400 230.880,282.580 231.200,282.800 231.200 C 283.020 231.200,283.200 231.430,283.200 231.712 C 283.200 231.993,283.560 232.483,284.000 232.800 C 284.440 233.117,284.800 233.697,284.800 234.088 C 284.800 234.480,284.980 234.800,285.200 234.800 C 285.420 234.800,285.600 235.083,285.600 235.429 C 285.600 235.774,285.870 236.327,286.200 236.657 C 286.530 236.987,286.800 237.604,286.800 238.029 C 286.800 238.453,286.980 238.800,287.200 238.800 C 287.420 238.800,287.600 239.148,287.600 239.573 C 287.600 239.998,287.960 240.460,288.400 240.600 C 288.840 240.740,289.200 241.202,289.200 241.627 C 289.200 242.052,289.380 242.400,289.600 242.400 C 289.820 242.400,290.000 242.720,290.000 243.112 C 290.000 243.503,290.360 244.083,290.800 244.400 C 291.240 244.717,291.600 245.297,291.600 245.688 C 291.600 246.080,291.780 246.400,292.000 246.400 C 292.220 246.400,292.400 246.720,292.400 247.112 C 292.400 247.503,292.760 248.083,293.200 248.400 C 293.640 248.717,294.000 249.207,294.000 249.488 C 294.000 249.770,294.180 250.000,294.400 250.000 C 294.620 250.000,294.800 250.283,294.800 250.629 C 294.800 250.974,295.070 251.527,295.400 251.857 C 295.730 252.187,296.000 252.804,296.000 253.229 C 296.000 253.653,296.180 254.000,296.400 254.000 C 296.620 254.000,296.800 254.320,296.800 254.712 C 296.800 255.103,297.160 255.683,297.600 256.000 C 298.040 256.317,298.400 256.897,298.400 257.288 C 298.400 257.680,298.580 258.000,298.800 258.000 C 299.020 258.000,299.200 258.230,299.200 258.512 C 299.200 258.793,299.560 259.283,300.000 259.600 C 300.440 259.917,300.800 260.497,300.800 260.888 C 300.800 261.280,300.980 261.600,301.200 261.600 C 301.420 261.600,301.600 261.948,301.600 262.373 C 301.600 263.197,303.125 263.940,303.550 263.322 C 303.687 263.122,304.450 262.656,305.245 262.287 C 306.040 261.917,306.917 261.341,307.194 261.007 C 307.471 260.673,307.942 260.400,308.241 260.400 C 308.939 260.400,309.503 258.301,308.863 258.088 C 308.608 258.003,308.400 257.628,308.400 257.255 C 308.400 256.882,308.040 256.317,307.600 256.000 C 307.160 255.683,306.800 255.103,306.800 254.712 C 306.800 254.320,306.620 254.000,306.400 254.000 C 306.180 254.000,306.000 253.706,306.000 253.347 C 306.000 252.988,305.664 252.403,305.254 252.047 C 304.843 251.691,304.387 250.849,304.239 250.177 C 304.091 249.505,303.617 248.701,303.185 248.389 C 302.753 248.078,302.400 247.503,302.400 247.112 C 302.400 246.720,302.220 246.400,302.000 246.400 C 301.780 246.400,301.600 246.080,301.600 245.688 C 301.600 245.297,301.240 244.717,300.800 244.400 C 300.360 244.083,300.000 243.503,300.000 243.112 C 300.000 242.720,299.820 242.400,299.600 242.400 C 299.380 242.400,299.200 242.132,299.200 241.803 C 299.200 241.475,298.840 240.982,298.400 240.707 C 297.960 240.432,297.600 239.891,297.600 239.504 C 297.600 239.117,297.420 238.800,297.200 238.800 C 296.980 238.800,296.800 238.517,296.800 238.171 C 296.800 237.826,296.530 237.273,296.200 236.943 C 295.870 236.613,295.600 235.996,295.600 235.571 C 295.600 235.147,295.420 234.800,295.200 234.800 C 294.980 234.800,294.800 234.480,294.800 234.088 C 294.800 233.697,294.440 233.117,294.000 232.800 C 293.560 232.483,293.200 231.993,293.200 231.712 C 293.200 231.430,293.020 231.200,292.800 231.200 C 292.580 231.200,292.400 230.880,292.400 230.488 C 292.400 230.097,292.040 229.517,291.600 229.200 C 291.160 228.883,290.800 228.303,290.800 227.912 C 290.800 227.520,290.620 227.200,290.400 227.200 C 290.180 227.200,290.000 226.880,290.000 226.488 C 290.000 226.097,289.640 225.517,289.200 225.200 C 288.760 224.883,288.400 224.303,288.400 223.912 C 288.400 223.520,288.220 223.200,288.000 223.200 C 287.780 223.200,287.600 223.007,287.600 222.771 C 287.600 222.536,287.330 222.073,287.000 221.743 C 286.670 221.413,286.400 220.796,286.400 220.371 C 286.400 219.947,286.220 219.600,286.000 219.600 C 285.780 219.600,285.600 219.280,285.600 218.888 C 285.600 218.497,285.240 217.917,284.800 217.600 C 284.360 217.283,284.000 216.703,284.000 216.312 C 284.000 215.920,283.820 215.600,283.600 215.600 C 283.380 215.600,283.200 215.252,283.200 214.827 C 283.200 214.402,282.840 213.940,282.400 213.800 C 281.960 213.660,281.600 213.198,281.600 212.773 C 281.600 212.348,281.420 212.000,281.200 212.000 C 280.980 212.000,280.800 211.680,280.800 211.288 C 280.800 210.897,280.440 210.317,280.000 210.000 C 279.560 209.683,279.200 209.103,279.200 208.712 C 279.200 208.320,279.020 208.000,278.800 208.000 C 278.580 208.000,278.400 207.640,278.400 207.200 C 278.400 206.760,278.223 206.400,278.008 206.400 C 277.792 206.400,277.502 205.950,277.364 205.400 C 277.226 204.850,276.953 204.400,276.757 204.400 C 276.560 204.400,276.400 204.080,276.400 203.688 C 276.400 203.297,276.040 202.717,275.600 202.400 C 275.160 202.083,274.800 201.503,274.800 201.112 C 274.800 200.720,274.620 200.400,274.400 200.400 C 274.180 200.400,274.000 200.080,274.000 199.688 C 274.000 199.297,273.640 198.717,273.200 198.400 C 272.760 198.083,272.400 197.503,272.400 197.112 C 272.400 196.720,272.220 196.400,272.000 196.400 C 271.780 196.400,271.600 196.170,271.600 195.888 C 271.600 195.607,271.240 195.117,270.800 194.800 C 270.360 194.483,270.000 193.903,270.000 193.512 C 270.000 193.120,269.820 192.800,269.600 192.800 C 269.380 192.800,269.200 192.517,269.200 192.171 C 269.200 191.826,268.930 191.273,268.600 190.943 C 268.270 190.613,268.000 189.996,268.000 189.571 C 268.000 189.147,267.820 188.800,267.600 188.800 C 267.380 188.800,267.200 188.483,267.200 188.096 C 267.200 187.709,266.840 187.168,266.400 186.893 C 265.960 186.618,265.600 186.125,265.600 185.797 C 265.600 185.468,265.420 185.200,265.200 185.200 C 264.980 185.200,264.800 184.880,264.800 184.488 C 264.800 184.097,264.440 183.517,264.000 183.200 C 263.560 182.883,263.200 182.303,263.200 181.912 C 263.200 181.520,263.020 181.200,262.800 181.200 C 262.580 181.200,262.400 180.880,262.400 180.488 C 262.400 180.097,262.040 179.517,261.600 179.200 C 261.160 178.883,260.800 178.303,260.800 177.912 C 260.800 177.520,260.620 177.200,260.400 177.200 C 260.180 177.200,260.000 177.007,260.000 176.771 C 260.000 176.536,259.730 176.073,259.400 175.743 C 259.070 175.413,258.800 174.796,258.800 174.371 C 258.800 173.947,258.620 173.600,258.400 173.600 C 258.180 173.600,258.000 173.280,258.000 172.888 C 258.000 172.497,257.640 171.917,257.200 171.600 C 256.760 171.283,256.400 170.703,256.400 170.312 C 256.400 169.920,256.220 169.600,256.000 169.600 C 255.780 169.600,255.600 169.370,255.600 169.088 C 255.600 168.807,255.240 168.317,254.800 168.000 C 254.360 167.683,254.000 167.103,254.000 166.712 C 254.000 166.320,253.820 166.000,253.600 166.000 C 253.380 166.000,253.200 165.680,253.200 165.288 C 253.200 164.897,252.840 164.317,252.400 164.000 C 251.960 163.683,251.600 163.103,251.600 162.712 C 251.600 162.320,251.420 162.000,251.200 162.000 C 250.980 162.000,250.800 161.640,250.800 161.200 C 250.800 160.760,250.623 160.400,250.408 160.400 C 250.192 160.400,249.902 159.950,249.764 159.400 C 249.626 158.850,249.353 158.400,249.157 158.400 C 248.960 158.400,248.800 158.080,248.800 157.688 C 248.800 157.297,248.440 156.717,248.000 156.400 C 247.560 156.083,247.200 155.503,247.200 155.112 C 247.200 154.720,247.020 154.400,246.800 154.400 C 246.580 154.400,246.400 154.080,246.400 153.688 C 246.400 153.297,246.040 152.717,245.600 152.400 C 245.160 152.083,244.800 151.503,244.800 151.112 C 244.800 150.720,244.620 150.400,244.400 150.400 C 244.180 150.400,244.000 150.170,244.000 149.888 C 244.000 149.607,243.640 149.117,243.200 148.800 C 242.760 148.483,242.400 147.903,242.400 147.512 C 242.400 147.120,242.220 146.800,242.000 146.800 C 241.780 146.800,241.600 146.517,241.600 146.171 C 241.600 145.826,241.330 145.273,241.000 144.943 C 240.670 144.613,240.400 143.996,240.400 143.571 C 240.400 143.147,240.220 142.800,240.000 142.800 C 239.780 142.800,239.600 142.452,239.600 142.027 C 239.600 141.602,239.240 141.140,238.800 141.000 C 238.360 140.860,238.000 140.398,238.000 139.973 C 238.000 139.548,237.820 139.200,237.600 139.200 C 237.380 139.200,237.200 138.906,237.200 138.547 C 237.200 136.426,235.582 136.185,232.400 137.831 M44.584 291.700 C 44.478 291.975,44.439 302.460,44.496 315.000 L 44.600 337.800 49.400 337.800 L 54.200 337.800 54.308 328.700 L 54.415 319.600 61.408 319.600 C 65.803 319.600,68.400 319.749,68.400 320.000 C 68.400 320.220,68.664 320.400,68.986 320.400 C 69.723 320.400,70.400 321.632,70.400 322.974 C 70.400 323.538,70.580 324.000,70.800 324.000 C 71.020 324.000,71.200 324.529,71.200 325.176 C 71.200 325.823,71.020 326.464,70.800 326.600 C 70.580 326.736,70.400 328.097,70.400 329.624 C 70.400 331.208,70.572 332.400,70.800 332.400 C 71.020 332.400,71.200 333.092,71.200 333.939 C 71.200 334.785,71.483 336.045,71.829 336.739 L 72.459 338.000 77.406 338.000 C 82.694 338.000,83.397 337.743,82.142 336.270 C 80.538 334.389,80.400 333.718,80.400 327.829 C 80.400 324.406,80.237 321.946,80.000 321.800 C 79.780 321.664,79.600 321.201,79.600 320.771 C 79.600 319.146,77.633 316.744,75.802 316.134 C 74.472 315.691,73.983 314.800,75.070 314.800 C 75.476 314.800,76.032 314.440,76.307 314.000 C 76.582 313.560,77.040 313.200,77.325 313.200 C 77.970 313.200,80.400 310.735,80.400 310.081 C 80.400 309.816,80.580 309.600,80.800 309.600 C 81.020 309.600,81.200 309.060,81.200 308.400 C 81.200 307.740,81.380 307.200,81.600 307.200 C 81.835 307.200,82.000 305.800,82.000 303.800 C 82.000 301.800,81.835 300.400,81.600 300.400 C 81.380 300.400,81.200 300.071,81.200 299.668 C 81.200 296.811,76.910 292.000,74.362 292.000 C 73.969 292.000,73.536 291.820,73.400 291.600 C 73.007 290.964,44.828 291.061,44.584 291.700 M70.046 300.074 C 72.709 301.331,72.816 307.276,70.230 310.300 C 69.483 311.174,69.245 311.200,61.930 311.200 L 54.400 311.200 54.400 305.400 L 54.400 299.600 61.720 299.600 C 66.534 299.600,69.385 299.762,70.046 300.074 M124.400 314.600 L 124.400 318.400 200.200 318.400 L 276.000 318.400 276.000 314.600 L 276.000 310.800 200.200 310.800 L 124.400 310.800 124.400 314.600 " stroke="none" fill="#040404" fill-rule="evenodd"></path><path id="path1" d="M56.400 252.800 C 56.400 253.035,55.000 253.200,53.000 253.200 C 51.000 253.200,49.600 253.365,49.600 253.600 C 49.600 253.820,48.880 254.000,48.000 254.000 C 47.120 254.000,46.400 254.180,46.400 254.400 C 46.400 254.620,45.860 254.800,45.200 254.800 C 44.540 254.800,44.000 254.980,44.000 255.200 C 44.000 255.420,43.460 255.600,42.800 255.600 C 42.140 255.600,41.600 255.780,41.600 256.000 C 41.600 256.220,41.150 256.400,40.600 256.400 C 40.050 256.400,39.600 256.580,39.600 256.800 C 39.600 257.020,39.060 257.200,38.400 257.200 C 37.740 257.200,37.200 257.380,37.200 257.600 C 37.200 257.820,36.840 258.000,36.400 258.000 C 35.960 258.000,35.600 258.180,35.600 258.400 C 35.600 258.620,35.312 258.800,34.960 258.800 C 34.024 258.800,31.501 260.047,30.753 260.880 C 30.397 261.276,29.812 261.600,29.453 261.600 C 29.094 261.600,28.800 261.780,28.800 262.000 C 28.800 262.220,28.480 262.400,28.088 262.400 C 27.697 262.400,27.117 262.760,26.800 263.200 C 26.483 263.640,25.975 264.000,25.672 264.000 C 25.126 264.000,23.544 265.531,22.412 267.156 C 22.088 267.620,21.512 268.000,21.131 268.000 C 20.379 268.000,14.800 273.285,14.800 273.998 C 14.800 274.237,14.575 274.705,14.300 275.036 C 13.040 276.555,11.931 277.600,11.582 277.600 C 11.372 277.600,11.200 277.920,11.200 278.312 C 11.200 278.703,10.840 279.283,10.400 279.600 C 9.960 279.917,9.600 280.497,9.600 280.888 C 9.600 281.280,9.420 281.600,9.200 281.600 C 8.980 281.600,8.800 281.960,8.800 282.400 C 8.800 282.840,8.620 283.200,8.400 283.200 C 8.180 283.200,8.000 283.520,8.000 283.912 C 8.000 284.303,7.640 284.883,7.200 285.200 C 6.760 285.517,6.400 286.007,6.400 286.288 C 6.400 286.570,6.220 286.800,6.000 286.800 C 5.780 286.800,5.600 287.160,5.600 287.600 C 5.600 288.040,5.426 288.400,5.214 288.400 C 5.001 288.400,4.708 289.300,4.562 290.400 C 4.416 291.500,4.140 292.400,3.948 292.400 C 3.757 292.400,3.600 292.940,3.600 293.600 C 3.600 294.260,3.420 294.800,3.200 294.800 C 2.980 294.800,2.800 295.430,2.800 296.200 C 2.800 296.970,2.620 297.600,2.400 297.600 C 2.180 297.600,2.000 298.140,2.000 298.800 C 2.000 299.460,1.820 300.000,1.600 300.000 C 1.380 300.000,1.200 300.705,1.200 301.567 C 1.200 302.428,0.989 303.204,0.731 303.290 C 0.060 303.513,0.060 325.687,0.731 325.910 C 1.005 326.002,1.200 326.885,1.200 328.033 C 1.200 329.115,1.380 330.000,1.600 330.000 C 1.820 330.000,2.000 330.450,2.000 331.000 C 2.000 331.550,2.180 332.000,2.400 332.000 C 2.620 332.000,2.800 332.540,2.800 333.200 C 2.800 333.860,2.980 334.400,3.200 334.400 C 3.420 334.400,3.600 335.120,3.600 336.000 C 3.600 336.880,3.756 337.600,3.947 337.600 C 4.138 337.600,4.393 338.330,4.512 339.223 C 4.638 340.158,5.084 341.152,5.565 341.570 C 6.024 341.968,6.400 342.588,6.400 342.947 C 6.400 343.306,6.580 343.600,6.800 343.600 C 7.020 343.600,7.200 343.960,7.200 344.400 C 7.200 344.840,7.380 345.200,7.600 345.200 C 7.820 345.200,8.000 345.560,8.000 346.000 C 8.000 346.440,8.180 346.800,8.400 346.800 C 8.620 346.800,8.800 347.160,8.800 347.600 C 8.800 348.040,8.980 348.400,9.200 348.400 C 9.420 348.400,9.600 348.760,9.600 349.200 C 9.600 349.640,9.752 350.000,9.939 350.000 C 10.479 350.000,12.000 351.448,12.000 351.961 C 12.000 352.396,12.316 352.797,14.700 355.386 C 15.195 355.924,15.605 356.597,15.612 356.882 C 15.619 357.167,16.170 357.850,16.837 358.400 C 17.504 358.950,18.481 359.805,19.007 360.300 C 19.533 360.795,20.170 361.200,20.421 361.200 C 20.888 361.200,22.528 362.834,23.588 364.356 C 23.912 364.820,24.425 365.200,24.728 365.200 C 25.031 365.200,25.770 365.726,26.371 366.369 C 27.003 367.046,28.081 367.654,28.932 367.814 C 29.739 367.965,30.400 368.249,30.400 368.445 C 30.400 368.640,30.760 368.800,31.200 368.800 C 31.640 368.800,32.000 368.980,32.000 369.200 C 32.000 369.420,32.270 369.600,32.600 369.600 C 32.930 369.600,33.200 369.780,33.200 370.000 C 33.200 370.220,33.520 370.400,33.912 370.400 C 34.303 370.400,34.883 370.760,35.200 371.200 C 35.517 371.640,36.097 372.000,36.488 372.000 C 36.880 372.000,37.200 372.180,37.200 372.400 C 37.200 372.620,37.740 372.800,38.400 372.800 C 39.060 372.800,39.600 372.980,39.600 373.200 C 39.600 373.420,40.230 373.600,41.000 373.600 C 41.770 373.600,42.400 373.780,42.400 374.000 C 42.400 374.220,42.940 374.400,43.600 374.400 C 44.260 374.400,44.800 374.580,44.800 374.800 C 44.800 375.020,45.340 375.200,46.000 375.200 C 46.660 375.200,47.200 375.380,47.200 375.600 C 47.200 375.820,47.974 376.000,48.920 376.000 C 49.866 376.000,50.851 376.211,51.109 376.469 C 51.445 376.805,54.720 376.938,62.666 376.938 C 70.790 376.938,73.796 376.813,73.910 376.469 C 73.996 376.211,74.772 376.000,75.633 376.000 C 76.495 376.000,77.200 375.820,77.200 375.600 C 77.200 375.380,77.650 375.200,78.200 375.200 C 78.750 375.200,79.200 375.020,79.200 374.800 C 79.200 374.580,79.920 374.400,80.800 374.400 C 81.680 374.400,82.400 374.220,82.400 374.000 C 82.400 373.780,82.940 373.600,83.600 373.600 C 84.260 373.600,84.800 373.420,84.800 373.200 C 84.800 372.980,85.250 372.800,85.800 372.800 C 86.350 372.800,86.800 372.620,86.800 372.400 C 86.800 372.180,87.160 372.000,87.600 372.000 C 88.040 372.000,88.400 371.820,88.400 371.600 C 88.400 371.380,88.760 371.200,89.200 371.200 C 89.640 371.200,90.000 371.020,90.000 370.800 C 90.000 370.580,90.320 370.400,90.712 370.400 C 91.103 370.400,91.683 370.040,92.000 369.600 C 92.317 369.160,92.897 368.800,93.288 368.800 C 93.680 368.800,94.000 368.640,94.000 368.445 C 94.000 368.249,94.591 367.978,95.313 367.843 C 96.035 367.707,96.885 367.237,97.201 366.798 C 97.518 366.359,98.019 366.000,98.314 366.000 C 98.610 366.000,99.729 365.100,100.800 364.000 C 101.871 362.900,103.018 362.000,103.347 362.000 C 103.677 362.000,104.048 361.680,104.172 361.289 C 104.296 360.898,104.780 360.313,105.247 359.989 C 106.748 358.949,109.200 356.477,109.200 356.005 C 109.200 355.754,110.100 354.671,111.200 353.600 C 112.300 352.529,113.200 351.365,113.200 351.013 C 113.200 350.662,113.470 350.271,113.800 350.145 C 114.130 350.018,114.400 349.574,114.400 349.157 C 114.400 348.741,114.580 348.400,114.800 348.400 C 115.020 348.400,115.200 348.080,115.200 347.688 C 115.200 347.297,115.560 346.717,116.000 346.400 C 116.440 346.083,116.800 345.503,116.800 345.112 C 116.800 344.720,116.980 344.400,117.200 344.400 C 117.420 344.400,117.600 344.040,117.600 343.600 C 117.600 343.160,117.780 342.800,118.000 342.800 C 118.220 342.800,118.400 342.440,118.400 342.000 C 118.400 341.560,118.580 341.200,118.800 341.200 C 119.020 341.200,119.200 340.930,119.200 340.600 C 119.200 340.270,119.380 340.000,119.600 340.000 C 119.820 340.000,120.000 339.460,120.000 338.800 C 120.000 338.140,120.180 337.600,120.400 337.600 C 120.620 337.600,120.800 337.060,120.800 336.400 C 120.800 335.740,120.980 335.200,121.200 335.200 C 121.420 335.200,121.600 334.675,121.600 334.033 C 121.600 333.392,121.778 332.807,121.996 332.733 C 122.214 332.660,122.510 331.475,122.653 330.100 C 122.797 328.725,123.068 327.600,123.257 327.600 C 123.446 327.600,123.600 326.070,123.600 324.200 C 123.600 322.330,123.735 320.800,123.900 320.800 C 124.065 320.800,124.200 318.190,124.200 315.000 C 124.200 311.811,124.065 309.201,123.900 309.200 C 123.735 309.200,123.600 307.490,123.600 305.400 C 123.600 303.310,123.438 301.600,123.239 301.600 C 123.041 301.600,122.753 300.520,122.600 299.200 C 122.447 297.880,122.159 296.800,121.961 296.800 C 121.762 296.800,121.600 296.350,121.600 295.800 C 121.600 295.250,121.420 294.800,121.200 294.800 C 120.980 294.800,120.800 294.080,120.800 293.200 C 120.800 292.320,120.620 291.600,120.400 291.600 C 120.180 291.600,120.000 291.240,120.000 290.800 C 120.000 290.360,119.820 290.000,119.600 290.000 C 119.380 290.000,119.200 289.640,119.200 289.200 C 119.200 288.760,119.020 288.400,118.800 288.400 C 118.580 288.400,118.400 288.040,118.400 287.600 C 118.400 287.160,118.220 286.800,118.000 286.800 C 117.780 286.800,117.600 286.530,117.600 286.200 C 117.600 285.870,117.420 285.600,117.200 285.600 C 116.980 285.600,116.800 285.240,116.800 284.800 C 116.800 284.360,116.620 284.000,116.400 284.000 C 116.180 284.000,116.000 283.680,116.000 283.288 C 116.000 282.897,115.640 282.317,115.200 282.000 C 114.760 281.683,114.400 281.103,114.400 280.712 C 114.400 280.320,114.220 280.000,114.000 280.000 C 113.780 280.000,113.600 279.669,113.600 279.265 C 113.600 278.861,112.795 277.826,111.811 276.965 C 110.827 276.104,110.017 275.175,110.011 274.899 C 109.997 274.272,103.003 267.200,102.395 267.200 C 102.149 267.200,101.048 266.276,99.948 265.146 C 98.592 263.755,97.816 263.224,97.541 263.499 C 97.121 263.919,95.052 263.132,94.584 262.374 C 94.456 262.167,93.552 261.634,92.576 261.189 C 91.599 260.744,90.800 260.110,90.800 259.780 C 90.800 259.433,90.293 259.079,89.600 258.940 C 88.940 258.808,88.400 258.543,88.400 258.350 C 88.400 258.157,88.040 258.000,87.600 258.000 C 87.160 258.000,86.800 257.820,86.800 257.600 C 86.800 257.380,86.530 257.200,86.200 257.200 C 85.870 257.200,85.600 257.020,85.600 256.800 C 85.600 256.580,84.880 256.400,84.000 256.400 C 83.120 256.400,82.400 256.220,82.400 256.000 C 82.400 255.780,81.860 255.600,81.200 255.600 C 80.540 255.600,80.000 255.420,80.000 255.200 C 80.000 254.980,79.460 254.800,78.800 254.800 C 78.140 254.800,77.600 254.620,77.600 254.400 C 77.600 254.180,77.150 254.000,76.600 254.000 C 76.050 254.000,75.600 253.820,75.600 253.600 C 75.600 253.361,74.067 253.200,71.800 253.200 C 69.533 253.200,68.000 253.039,68.000 252.800 C 68.000 252.552,65.800 252.400,62.200 252.400 C 58.600 252.400,56.400 252.552,56.400 252.800 M73.400 291.200 C 73.536 291.420,73.999 291.600,74.429 291.600 C 75.902 291.600,80.000 294.750,80.000 295.881 C 80.000 296.167,80.180 296.400,80.400 296.400 C 80.620 296.400,80.800 296.749,80.800 297.176 C 80.800 297.603,80.980 298.064,81.200 298.200 C 81.420 298.336,81.600 298.876,81.600 299.400 C 81.600 299.924,81.780 300.464,82.000 300.600 C 82.522 300.922,82.522 307.078,82.000 307.400 C 81.780 307.536,81.600 308.087,81.600 308.624 C 81.600 309.161,81.420 309.600,81.200 309.600 C 80.980 309.600,80.800 309.876,80.800 310.213 C 80.800 310.929,78.245 313.600,77.560 313.600 C 77.304 313.600,76.803 313.932,76.447 314.337 C 76.091 314.743,75.530 315.179,75.200 315.306 C 74.721 315.490,74.741 315.543,75.300 315.568 C 75.685 315.586,76.000 315.780,76.000 316.000 C 76.000 316.220,76.278 316.400,76.618 316.400 C 77.775 316.400,80.000 319.276,80.000 320.771 C 80.000 321.201,80.180 321.664,80.400 321.800 C 80.636 321.946,80.800 324.384,80.800 327.762 C 80.800 333.373,81.201 335.459,82.425 336.216 C 82.631 336.343,82.800 336.797,82.800 337.224 C 82.800 337.953,82.481 338.000,77.500 337.997 L 72.200 337.994 71.700 336.917 C 71.425 336.325,71.200 335.156,71.200 334.320 C 71.200 333.484,71.020 332.800,70.800 332.800 C 70.567 332.800,70.400 331.475,70.400 329.624 C 70.400 327.877,70.580 326.336,70.800 326.200 C 71.020 326.064,71.200 325.603,71.200 325.176 C 71.200 324.749,71.020 324.400,70.800 324.400 C 70.580 324.400,70.400 323.860,70.400 323.200 C 70.400 322.540,70.220 322.000,70.000 322.000 C 69.780 322.000,69.600 321.640,69.600 321.200 C 69.600 320.667,69.333 320.400,68.800 320.400 C 68.360 320.400,68.000 320.220,68.000 320.000 C 68.000 319.750,65.536 319.600,61.408 319.600 L 54.815 319.600 54.708 328.700 L 54.600 337.800 49.500 337.912 L 44.400 338.024 44.400 314.679 C 44.400 301.839,44.520 291.213,44.667 291.067 C 45.112 290.621,73.122 290.751,73.400 291.200 M54.800 305.400 L 54.800 310.800 62.130 310.800 C 70.931 310.800,72.000 310.181,72.000 305.085 C 72.000 300.386,71.235 300.000,61.920 300.000 L 54.800 300.000 54.800 305.400 " stroke="none" fill="#fcd404" fill-rule="evenodd"></path><path id="path2" d="M332.200 252.800 C 332.064 253.020,330.433 253.200,328.576 253.200 C 326.592 253.200,325.200 253.365,325.200 253.600 C 325.200 253.820,324.570 254.000,323.800 254.000 C 323.030 254.000,322.400 254.180,322.400 254.400 C 322.400 254.620,321.860 254.800,321.200 254.800 C 320.540 254.800,320.000 254.980,320.000 255.200 C 320.000 255.420,319.460 255.600,318.800 255.600 C 318.140 255.600,317.600 255.780,317.600 256.000 C 317.600 256.220,317.060 256.400,316.400 256.400 C 315.740 256.400,315.200 256.580,315.200 256.800 C 315.200 257.020,314.750 257.200,314.200 257.200 C 313.650 257.200,313.200 257.380,313.200 257.600 C 313.200 257.820,312.840 258.000,312.400 258.000 C 311.960 258.000,311.600 258.180,311.600 258.400 C 311.600 258.620,311.240 258.800,310.800 258.800 C 310.360 258.800,309.640 259.160,309.200 259.600 C 308.760 260.040,308.248 260.400,308.062 260.400 C 307.876 260.400,307.430 260.725,307.071 261.122 C 306.711 261.519,305.783 262.093,305.009 262.397 C 304.234 262.701,303.600 263.081,303.600 263.243 C 303.600 263.404,303.027 263.662,302.328 263.816 C 301.570 263.982,300.285 264.886,299.154 266.048 C 298.108 267.121,297.047 268.000,296.796 268.000 C 296.214 268.000,290.800 273.459,290.800 274.046 C 290.800 274.287,289.921 275.321,288.846 276.343 C 287.771 277.364,286.769 278.605,286.619 279.100 C 286.469 279.595,286.178 280.000,285.973 280.000 C 285.768 280.000,285.600 280.360,285.600 280.800 C 285.600 281.240,285.420 281.600,285.200 281.600 C 284.980 281.600,284.800 281.960,284.800 282.400 C 284.800 282.840,284.620 283.200,284.400 283.200 C 284.180 283.200,284.000 283.520,284.000 283.912 C 284.000 284.303,283.640 284.883,283.200 285.200 C 282.760 285.517,282.400 286.007,282.400 286.288 C 282.400 286.570,282.220 286.800,282.000 286.800 C 281.780 286.800,281.600 287.160,281.600 287.600 C 281.600 288.040,281.420 288.400,281.200 288.400 C 280.980 288.400,280.800 288.760,280.800 289.200 C 280.800 289.640,280.620 290.000,280.400 290.000 C 280.180 290.000,280.000 290.540,280.000 291.200 C 280.000 291.860,279.820 292.400,279.600 292.400 C 279.380 292.400,279.200 292.940,279.200 293.600 C 279.200 294.260,279.020 294.800,278.800 294.800 C 278.580 294.800,278.400 295.394,278.400 296.120 C 278.400 296.846,278.227 297.613,278.015 297.825 C 277.803 298.037,277.505 299.288,277.354 300.605 C 277.203 301.922,276.895 303.120,276.670 303.266 C 276.111 303.631,276.111 325.569,276.670 325.934 C 276.895 326.080,277.193 327.459,277.333 328.998 C 277.473 330.537,277.771 331.857,277.994 331.931 C 278.217 332.006,278.400 332.592,278.400 333.233 C 278.400 333.875,278.580 334.400,278.800 334.400 C 279.020 334.400,279.200 335.120,279.200 336.000 C 279.200 336.880,279.380 337.600,279.600 337.600 C 279.820 337.600,280.000 338.140,280.000 338.800 C 280.000 339.460,280.180 340.000,280.400 340.000 C 280.620 340.000,280.800 340.230,280.800 340.512 C 280.800 340.793,281.160 341.283,281.600 341.600 C 282.040 341.917,282.400 342.497,282.400 342.888 C 282.400 343.280,282.580 343.600,282.800 343.600 C 283.020 343.600,283.200 343.960,283.200 344.400 C 283.200 344.840,283.380 345.200,283.600 345.200 C 283.820 345.200,284.000 345.560,284.000 346.000 C 284.000 346.440,284.180 346.800,284.400 346.800 C 284.620 346.800,284.800 347.160,284.800 347.600 C 284.800 348.040,284.980 348.400,285.200 348.400 C 285.420 348.400,285.600 348.679,285.600 349.019 C 285.600 349.360,286.050 350.055,286.600 350.565 C 287.150 351.075,287.600 351.708,287.600 351.972 C 287.600 352.236,288.500 353.329,289.600 354.400 C 290.700 355.471,291.605 356.585,291.612 356.874 C 291.619 357.163,292.170 357.850,292.837 358.400 C 293.504 358.950,294.481 359.805,295.007 360.300 C 295.533 360.795,296.074 361.200,296.208 361.200 C 296.342 361.200,297.329 362.100,298.400 363.200 C 299.471 364.300,300.558 365.200,300.814 365.200 C 301.070 365.200,301.762 365.717,302.352 366.349 C 302.943 366.981,304.005 367.625,304.713 367.781 C 305.421 367.936,306.000 368.229,306.000 368.432 C 306.000 368.634,306.360 368.800,306.800 368.800 C 307.240 368.800,307.600 368.980,307.600 369.200 C 307.600 369.420,307.960 369.600,308.400 369.600 C 308.840 369.600,309.200 369.780,309.200 370.000 C 309.200 370.220,309.520 370.400,309.912 370.400 C 310.303 370.400,310.883 370.760,311.200 371.200 C 311.517 371.640,312.097 372.000,312.488 372.000 C 312.880 372.000,313.200 372.180,313.200 372.400 C 313.200 372.620,313.650 372.800,314.200 372.800 C 314.750 372.800,315.200 372.980,315.200 373.200 C 315.200 373.420,315.920 373.600,316.800 373.600 C 317.680 373.600,318.400 373.780,318.400 374.000 C 318.400 374.220,318.940 374.400,319.600 374.400 C 320.260 374.400,320.800 374.580,320.800 374.800 C 320.800 375.020,321.239 375.200,321.776 375.200 C 322.313 375.200,322.864 375.380,323.000 375.600 C 323.136 375.820,324.032 376.000,324.990 376.000 C 325.968 376.000,326.802 376.206,326.890 376.469 C 327.112 377.137,349.023 377.137,349.691 376.469 C 349.949 376.211,350.754 376.000,351.480 376.000 C 352.206 376.000,352.800 375.820,352.800 375.600 C 352.800 375.380,353.340 375.200,354.000 375.200 C 354.660 375.200,355.200 375.020,355.200 374.800 C 355.200 374.580,355.920 374.400,356.800 374.400 C 357.680 374.400,358.400 374.220,358.400 374.000 C 358.400 373.780,358.850 373.600,359.400 373.600 C 359.950 373.600,360.400 373.420,360.400 373.200 C 360.400 372.980,360.940 372.800,361.600 372.800 C 362.260 372.800,362.800 372.620,362.800 372.400 C 362.800 372.180,363.160 372.000,363.600 372.000 C 364.040 372.000,364.400 371.820,364.400 371.600 C 364.400 371.380,364.760 371.200,365.200 371.200 C 365.640 371.200,366.000 371.020,366.000 370.800 C 366.000 370.580,366.348 370.400,366.773 370.400 C 367.198 370.400,367.660 370.040,367.800 369.600 C 367.940 369.160,368.402 368.800,368.827 368.800 C 369.252 368.800,369.600 368.636,369.600 368.435 C 369.600 368.234,370.288 367.954,371.128 367.812 C 371.969 367.670,372.909 367.204,373.217 366.777 C 373.525 366.350,374.025 366.000,374.328 366.000 C 374.874 366.000,376.456 364.469,377.588 362.844 C 377.912 362.380,378.413 362.000,378.702 362.000 C 378.990 362.000,379.843 361.415,380.597 360.700 C 381.350 359.985,382.686 358.770,383.565 358.000 C 384.444 357.230,385.171 356.367,385.182 356.083 C 385.202 355.511,385.580 355.008,387.500 352.992 C 388.215 352.241,388.800 351.363,388.800 351.040 C 388.800 350.718,389.160 350.340,389.600 350.200 C 390.040 350.060,390.400 349.598,390.400 349.173 C 390.400 348.748,390.580 348.400,390.800 348.400 C 391.020 348.400,391.200 348.080,391.200 347.688 C 391.200 347.297,391.560 346.717,392.000 346.400 C 392.440 346.083,392.800 345.503,392.800 345.112 C 392.800 344.720,392.980 344.400,393.200 344.400 C 393.420 344.400,393.600 344.040,393.600 343.600 C 393.600 343.160,393.780 342.800,394.000 342.800 C 394.220 342.800,394.400 342.455,394.400 342.033 C 394.400 341.612,394.592 341.203,394.826 341.125 C 395.060 341.047,395.354 340.222,395.478 339.291 C 395.603 338.361,395.862 337.600,396.053 337.600 C 396.244 337.600,396.400 337.060,396.400 336.400 C 396.400 335.740,396.580 335.200,396.800 335.200 C 397.020 335.200,397.200 334.660,397.200 334.000 C 397.200 333.340,397.380 332.800,397.600 332.800 C 397.820 332.800,398.000 332.350,398.000 331.800 C 398.000 331.250,398.180 330.800,398.400 330.800 C 398.620 330.800,398.800 330.095,398.800 329.233 C 398.800 328.337,399.014 327.595,399.299 327.500 C 400.010 327.263,399.994 301.931,399.283 301.694 C 399.017 301.606,398.800 301.008,398.800 300.367 C 398.800 299.725,398.620 299.200,398.400 299.200 C 398.180 299.200,398.000 298.660,398.000 298.000 C 398.000 297.340,397.820 296.800,397.600 296.800 C 397.380 296.800,397.200 296.350,397.200 295.800 C 397.200 295.250,397.020 294.800,396.800 294.800 C 396.580 294.800,396.400 294.080,396.400 293.200 C 396.400 292.320,396.220 291.600,396.000 291.600 C 395.780 291.600,395.600 291.303,395.600 290.940 C 395.600 290.163,393.572 285.861,393.115 285.667 C 392.942 285.593,392.800 285.188,392.800 284.767 C 392.800 284.345,392.620 284.000,392.400 284.000 C 392.180 284.000,392.000 283.680,392.000 283.288 C 392.000 282.897,391.640 282.317,391.200 282.000 C 390.760 281.683,390.400 281.103,390.400 280.712 C 390.400 280.320,390.220 280.000,390.000 280.000 C 389.780 280.000,389.600 279.680,389.600 279.288 C 389.600 278.897,389.215 278.312,388.745 277.988 C 387.249 276.959,386.000 275.583,386.000 274.965 C 386.000 274.635,384.569 272.978,382.820 271.283 C 378.821 267.406,378.568 267.200,377.817 267.200 C 377.478 267.200,377.200 267.035,377.200 266.833 C 377.200 266.196,374.092 263.200,373.431 263.200 C 373.084 263.200,372.800 263.020,372.800 262.800 C 372.800 262.580,372.480 262.400,372.088 262.400 C 371.697 262.400,371.117 262.040,370.800 261.600 C 370.483 261.160,369.903 260.800,369.512 260.800 C 369.120 260.800,368.800 260.662,368.800 260.494 C 368.800 260.123,365.831 258.800,364.997 258.800 C 364.669 258.800,364.400 258.620,364.400 258.400 C 364.400 258.180,364.040 258.000,363.600 258.000 C 363.160 258.000,362.800 257.820,362.800 257.600 C 362.800 257.380,362.440 257.200,362.000 257.200 C 361.560 257.200,361.200 257.020,361.200 256.800 C 361.200 256.580,360.570 256.400,359.800 256.400 C 359.030 256.400,358.400 256.220,358.400 256.000 C 358.400 255.780,357.860 255.600,357.200 255.600 C 356.540 255.600,356.000 255.420,356.000 255.200 C 356.000 254.980,355.460 254.800,354.800 254.800 C 354.140 254.800,353.600 254.620,353.600 254.400 C 353.600 254.180,353.060 254.000,352.400 254.000 C 351.740 254.000,351.200 253.820,351.200 253.600 C 351.200 253.361,349.667 253.200,347.400 253.200 C 345.133 253.200,343.600 253.039,343.600 252.800 C 343.600 252.552,341.475 252.400,338.024 252.400 C 334.737 252.400,332.346 252.564,332.200 252.800 M356.000 295.400 L 356.000 299.200 349.400 299.200 L 342.800 299.200 342.800 318.400 L 342.800 337.600 338.200 337.600 L 333.600 337.600 333.600 318.400 L 333.600 299.200 326.400 299.200 L 319.200 299.200 319.200 295.400 L 319.200 291.600 337.600 291.600 L 356.000 291.600 356.000 295.400 M79.000 312.000 C 78.368 312.660,77.636 313.200,77.374 313.200 C 77.112 313.200,76.678 313.465,76.409 313.789 C 75.979 314.308,76.059 314.309,77.070 313.805 C 78.115 313.284,80.826 310.800,80.350 310.800 C 80.240 310.800,79.632 311.340,79.000 312.000 M124.142 314.600 C 124.141 316.580,124.208 317.440,124.292 316.512 C 124.376 315.584,124.377 313.964,124.295 312.912 C 124.212 311.860,124.143 312.620,124.142 314.600 " stroke="none" fill="#9ca49c" fill-rule="evenodd"></path><path id="path3" d="M187.200 23.600 C 187.200 23.820,186.570 24.000,185.800 24.000 C 185.030 24.000,184.400 24.180,184.400 24.400 C 184.400 24.620,183.860 24.800,183.200 24.800 C 182.540 24.800,182.000 24.980,182.000 25.200 C 182.000 25.420,181.460 25.600,180.800 25.600 C 180.140 25.600,179.600 25.780,179.600 26.000 C 179.600 26.220,179.161 26.400,178.624 26.400 C 178.087 26.400,177.536 26.580,177.400 26.800 C 177.264 27.020,176.713 27.200,176.176 27.200 C 175.639 27.200,175.200 27.380,175.200 27.600 C 175.200 27.820,174.840 28.000,174.400 28.000 C 173.960 28.000,173.600 28.180,173.600 28.400 C 173.600 28.620,173.240 28.800,172.800 28.800 C 172.360 28.800,172.000 28.980,172.000 29.200 C 172.000 29.420,171.640 29.600,171.200 29.600 C 170.760 29.600,170.400 29.780,170.400 30.000 C 170.400 30.220,170.052 30.400,169.627 30.400 C 169.202 30.400,168.744 30.745,168.610 31.168 C 168.450 31.673,167.851 32.022,166.855 32.191 C 166.024 32.331,165.091 32.796,164.783 33.223 C 164.475 33.650,163.981 34.000,163.686 34.000 C 163.390 34.000,162.271 34.900,161.200 36.000 C 160.129 37.100,159.144 38.000,159.013 38.000 C 158.881 38.000,158.176 38.585,157.446 39.300 C 156.715 40.015,155.376 41.230,154.468 42.000 C 153.561 42.770,152.814 43.631,152.809 43.913 C 152.804 44.196,152.215 45.041,151.500 45.792 C 149.530 47.860,149.200 48.314,149.200 48.956 C 149.200 49.281,148.840 49.660,148.400 49.800 C 147.960 49.940,147.600 50.402,147.600 50.827 C 147.600 51.252,147.420 51.600,147.200 51.600 C 146.980 51.600,146.800 51.960,146.800 52.400 C 146.800 52.840,146.620 53.200,146.400 53.200 C 146.180 53.200,146.000 53.520,146.000 53.912 C 146.000 54.303,145.640 54.883,145.200 55.200 C 144.760 55.517,144.400 56.097,144.400 56.488 C 144.400 56.880,144.220 57.200,144.000 57.200 C 143.780 57.200,143.600 57.560,143.600 58.000 C 143.600 58.440,143.420 58.800,143.200 58.800 C 142.980 58.800,142.800 59.070,142.800 59.400 C 142.800 59.730,142.620 60.000,142.400 60.000 C 142.180 60.000,142.000 60.540,142.000 61.200 C 142.000 61.860,141.831 62.400,141.624 62.400 C 141.418 62.400,141.124 63.660,140.973 65.200 C 140.821 66.740,140.540 68.000,140.348 68.000 C 140.157 68.000,140.000 68.450,140.000 69.000 C 140.000 69.550,139.820 70.000,139.600 70.000 C 139.380 70.000,139.200 70.720,139.200 71.600 C 139.200 72.480,139.020 73.200,138.800 73.200 C 138.561 73.200,138.400 74.733,138.400 77.000 C 138.400 79.267,138.239 80.800,138.000 80.800 C 137.761 80.800,137.600 82.333,137.600 84.600 C 137.600 86.867,137.761 88.400,138.000 88.400 C 138.239 88.400,138.400 89.933,138.400 92.200 C 138.400 94.467,138.561 96.000,138.800 96.000 C 139.020 96.000,139.200 96.900,139.200 98.000 C 139.200 99.100,139.380 100.000,139.600 100.000 C 139.820 100.000,140.000 100.525,140.000 101.167 C 140.000 101.808,140.178 102.393,140.396 102.467 C 140.614 102.540,140.910 103.725,141.053 105.100 C 141.197 106.475,141.468 107.600,141.657 107.600 C 141.846 107.600,142.000 108.140,142.000 108.800 C 142.000 109.460,142.180 110.000,142.400 110.000 C 142.620 110.000,142.800 110.320,142.800 110.712 C 142.800 111.103,143.160 111.683,143.600 112.000 C 144.040 112.317,144.400 112.807,144.400 113.088 C 144.400 113.370,144.580 113.600,144.800 113.600 C 145.020 113.600,145.200 113.960,145.200 114.400 C 145.200 114.840,145.380 115.200,145.600 115.200 C 145.820 115.200,146.000 115.560,146.000 116.000 C 146.000 116.440,146.180 116.800,146.400 116.800 C 146.620 116.800,146.800 117.160,146.800 117.600 C 146.800 118.040,146.980 118.400,147.200 118.400 C 147.420 118.400,147.600 118.688,147.600 119.040 C 147.600 119.391,148.140 120.183,148.800 120.800 C 149.460 121.417,150.000 122.114,150.000 122.350 C 150.000 122.586,150.810 123.589,151.800 124.579 C 152.790 125.569,153.600 126.568,153.600 126.798 C 153.600 127.374,157.870 131.600,158.451 131.600 C 158.709 131.600,159.685 132.410,160.620 133.400 C 161.556 134.390,162.609 135.200,162.960 135.200 C 163.312 135.200,163.600 135.377,163.600 135.592 C 163.600 135.808,164.050 136.098,164.600 136.236 C 165.150 136.374,165.603 136.602,165.606 136.743 C 165.609 136.885,166.956 137.630,168.600 138.400 C 170.244 139.170,171.591 140.005,171.594 140.257 C 171.597 140.508,172.050 140.826,172.600 140.964 C 173.150 141.102,173.600 141.392,173.600 141.608 C 173.600 141.823,173.960 142.000,174.400 142.000 C 174.840 142.000,175.200 142.180,175.200 142.400 C 175.200 142.620,175.650 142.800,176.200 142.800 C 176.750 142.800,177.200 142.980,177.200 143.200 C 177.200 143.420,177.920 143.600,178.800 143.600 C 179.680 143.600,180.400 143.780,180.400 144.000 C 180.400 144.220,180.940 144.400,181.600 144.400 C 182.260 144.400,182.800 144.580,182.800 144.800 C 182.800 145.020,183.340 145.200,184.000 145.200 C 184.660 145.200,185.200 145.380,185.200 145.600 C 185.200 145.820,186.010 146.000,187.000 146.000 C 187.990 146.000,188.800 146.180,188.800 146.400 C 188.800 146.639,190.333 146.800,192.600 146.800 C 194.867 146.800,196.400 146.961,196.400 147.200 C 196.400 147.440,198.000 147.600,200.400 147.600 C 202.800 147.600,204.400 147.440,204.400 147.200 C 204.400 146.961,205.933 146.800,208.200 146.800 C 210.467 146.800,212.000 146.639,212.000 146.400 C 212.000 146.180,212.630 146.000,213.400 146.000 C 214.170 146.000,214.800 145.820,214.800 145.600 C 214.800 145.380,215.340 145.200,216.000 145.200 C 216.660 145.200,217.200 145.020,217.200 144.800 C 217.200 144.580,217.920 144.400,218.800 144.400 C 219.680 144.400,220.400 144.220,220.400 144.000 C 220.400 143.780,220.940 143.600,221.600 143.600 C 222.260 143.600,222.800 143.420,222.800 143.200 C 222.800 142.980,223.250 142.800,223.800 142.800 C 224.350 142.800,224.800 142.620,224.800 142.400 C 224.800 142.180,225.160 142.000,225.600 142.000 C 226.040 142.000,226.400 141.820,226.400 141.600 C 226.400 141.380,226.769 141.200,227.219 141.200 C 227.670 141.200,228.469 140.735,228.996 140.166 C 229.897 139.194,235.624 136.000,236.466 136.000 C 236.678 136.000,237.729 135.100,238.800 134.000 C 239.871 132.900,240.931 132.000,241.154 132.000 C 241.710 132.000,247.200 126.548,247.200 125.996 C 247.200 125.753,248.010 124.755,249.000 123.779 C 249.990 122.803,250.800 121.773,250.800 121.491 C 250.800 121.208,251.160 120.717,251.600 120.400 C 252.040 120.083,252.400 119.503,252.400 119.112 C 252.400 118.720,252.580 118.400,252.800 118.400 C 253.020 118.400,253.200 118.080,253.200 117.688 C 253.200 117.297,253.560 116.717,254.000 116.400 C 254.440 116.083,254.800 115.503,254.800 115.112 C 254.800 114.720,254.980 114.400,255.200 114.400 C 255.420 114.400,255.600 114.130,255.600 113.800 C 255.600 113.470,255.780 113.200,256.000 113.200 C 256.220 113.200,256.400 112.840,256.400 112.400 C 256.400 111.960,256.580 111.600,256.800 111.600 C 257.020 111.600,257.200 111.240,257.200 110.800 C 257.200 110.360,257.380 110.000,257.600 110.000 C 257.820 110.000,258.000 109.460,258.000 108.800 C 258.000 108.140,258.159 107.600,258.354 107.600 C 258.549 107.600,258.832 106.610,258.983 105.400 C 259.134 104.190,259.425 103.200,259.629 103.200 C 259.833 103.200,260.000 102.660,260.000 102.000 C 260.000 101.340,260.180 100.800,260.400 100.800 C 260.620 100.800,260.800 100.080,260.800 99.200 C 260.800 98.320,260.980 97.600,261.200 97.600 C 261.435 97.600,261.600 96.200,261.600 94.200 C 261.600 92.200,261.765 90.800,262.000 90.800 C 262.248 90.800,262.400 88.600,262.400 85.000 C 262.400 81.400,262.248 79.200,262.000 79.200 C 261.761 79.200,261.600 77.667,261.600 75.400 C 261.600 73.133,261.439 71.600,261.200 71.600 C 260.980 71.600,260.800 71.060,260.800 70.400 C 260.800 69.740,260.620 69.200,260.400 69.200 C 260.180 69.200,260.000 68.750,260.000 68.200 C 260.000 67.650,259.831 67.200,259.624 67.200 C 259.418 67.200,259.124 65.940,258.973 64.400 C 258.821 62.860,258.540 61.600,258.348 61.600 C 258.157 61.600,258.000 61.240,258.000 60.800 C 258.000 60.360,257.820 60.000,257.600 60.000 C 257.380 60.000,257.200 59.730,257.200 59.400 C 257.200 59.070,257.020 58.800,256.800 58.800 C 256.580 58.800,256.400 58.440,256.400 58.000 C 256.400 57.560,256.220 57.200,256.000 57.200 C 255.780 57.200,255.600 56.840,255.600 56.400 C 255.600 55.960,255.420 55.600,255.200 55.600 C 254.980 55.600,254.800 55.240,254.800 54.800 C 254.800 54.360,254.620 54.000,254.400 54.000 C 254.180 54.000,254.000 53.680,254.000 53.288 C 254.000 52.897,253.640 52.317,253.200 52.000 C 252.760 51.683,252.400 51.103,252.400 50.712 C 252.400 50.320,252.220 50.000,252.000 50.000 C 251.780 50.000,251.600 49.812,251.600 49.582 C 251.600 49.352,251.195 48.724,250.700 48.186 C 248.308 45.589,247.999 45.193,247.987 44.714 C 247.980 44.431,247.058 43.390,245.939 42.400 C 244.820 41.410,243.121 39.835,242.163 38.900 C 241.205 37.965,240.315 37.200,240.185 37.200 C 240.054 37.200,239.071 36.300,238.000 35.200 C 236.929 34.100,235.770 33.200,235.426 33.200 C 235.082 33.200,234.800 33.020,234.800 32.800 C 234.800 32.580,234.453 32.400,234.029 32.400 C 233.604 32.400,232.987 32.130,232.657 31.800 C 232.327 31.470,231.864 31.200,231.629 31.200 C 231.393 31.200,231.200 31.020,231.200 30.800 C 231.200 30.580,230.840 30.400,230.400 30.400 C 229.960 30.400,229.600 30.220,229.600 30.000 C 229.600 29.780,229.240 29.600,228.800 29.600 C 228.360 29.600,228.000 29.420,228.000 29.200 C 228.000 28.980,227.640 28.800,227.200 28.800 C 226.760 28.800,226.400 28.620,226.400 28.400 C 226.400 28.180,226.040 28.000,225.600 28.000 C 225.160 28.000,224.800 27.820,224.800 27.600 C 224.800 27.380,224.440 27.200,224.000 27.200 C 223.560 27.200,223.200 27.020,223.200 26.800 C 223.200 26.580,222.570 26.400,221.800 26.400 C 221.030 26.400,220.400 26.220,220.400 26.000 C 220.400 25.780,219.860 25.600,219.200 25.600 C 218.540 25.600,218.000 25.420,218.000 25.200 C 218.000 24.980,217.460 24.800,216.800 24.800 C 216.140 24.800,215.600 24.620,215.600 24.400 C 215.600 24.180,215.161 24.000,214.624 24.000 C 214.087 24.000,213.536 23.820,213.400 23.600 C 213.061 23.052,187.200 23.052,187.200 23.600 M204.400 84.600 L 204.400 107.600 199.800 107.600 L 195.200 107.600 195.200 84.600 L 195.200 61.600 199.800 61.600 L 204.400 61.600 204.400 84.600 " stroke="none" fill="#fc0404" fill-rule="evenodd"></path><path id="path4" d="M92.603 261.205 C 92.737 261.422,93.079 261.600,93.362 261.600 C 93.645 261.600,94.202 261.960,94.600 262.400 C 94.998 262.840,95.611 263.186,95.962 263.168 C 96.503 263.142,96.509 263.104,96.000 262.918 C 95.670 262.797,95.040 262.388,94.600 262.009 C 93.653 261.192,92.245 260.626,92.603 261.205 M51.926 291.100 C 55.955 291.165,62.435 291.165,66.326 291.099 C 70.217 291.034,66.920 290.980,59.000 290.981 C 51.080 290.981,47.897 291.034,51.926 291.100 M54.575 300.121 C 54.465 300.408,54.426 302.973,54.487 305.821 L 54.600 311.000 62.000 311.013 L 69.400 311.026 62.100 310.904 L 54.800 310.782 54.800 305.400 L 54.800 300.018 62.300 299.899 L 69.800 299.781 62.287 299.691 C 56.418 299.620,54.731 299.714,54.575 300.121 M82.079 303.876 C 82.036 305.678,81.820 307.264,81.600 307.400 C 81.380 307.536,81.221 308.132,81.246 308.724 C 81.281 309.524,81.338 309.595,81.467 309.000 C 81.563 308.560,81.821 307.836,82.040 307.390 C 82.259 306.945,82.376 305.235,82.299 303.590 L 82.159 300.600 82.079 303.876 M79.471 320.099 C 79.579 320.595,79.831 321.360,80.033 321.800 C 80.234 322.240,80.450 325.120,80.512 328.200 L 80.625 333.800 80.712 327.924 C 80.766 324.340,80.644 321.951,80.400 321.800 C 80.180 321.664,80.000 321.124,80.000 320.600 C 80.000 320.076,79.837 319.546,79.637 319.423 C 79.438 319.300,79.363 319.604,79.471 320.099 M54.572 328.600 C 54.572 333.660,54.629 335.675,54.699 333.077 C 54.769 330.480,54.768 326.340,54.698 323.877 C 54.628 321.415,54.571 323.540,54.572 328.600 " stroke="none" fill="#d09474" fill-rule="evenodd"></path></g></svg>